<?xml version="1.0" standalone="no"?>
<!DOCTYPE svg PUBLIC "-//W3C//DTD SVG 20010904//EN"
 "http://www.w3.org/TR/2001/REC-SVG-20010904/DTD/svg10.dtd">
<svg version="1.0" xmlns="http://www.w3.org/2000/svg"
 width="512.000000pt" height="512.000000pt" viewBox="0 0 512.000000 512.000000"
 preserveAspectRatio="xMidYMid meet">

<g transform="translate(0.000000,512.000000) scale(0.100000,-0.100000)"
fill="#000000" stroke="none">
<path d="M2146 5105 c-196 -40 -344 -122 -481 -266 -63 -66 -132 -168 -162
-240 -9 -21 -22 -28 -70 -38 -71 -14 -148 -63 -186 -119 -57 -81 -57 -85 -57
-707 0 -635 0 -637 65 -712 40 -47 124 -93 170 -93 l32 0 6 137 c4 75 7 243 7
373 l0 237 24 22 c16 15 49 28 97 37 168 32 265 117 334 294 13 34 32 68 42
76 34 25 81 16 159 -31 408 -248 879 -400 1373 -444 92 -9 107 -13 130 -36
l26 -25 3 -321 3 -321 45 5 c57 6 129 51 171 105 64 85 65 86 61 744 -4 673
-3 659 -92 843 -109 226 -317 399 -561 467 -77 22 -97 22 -575 24 -390 2 -510
0 -564 -11z"/>
<path d="M2308 583 c-43 -317 -76 -579 -74 -580 2 -2 149 -2 327 -1 l325 3
-80 570 c-44 314 -81 572 -83 574 -1 2 -29 -25 -61 -60 -54 -58 -62 -64 -101
-64 -38 0 -45 5 -102 68 -33 37 -64 67 -68 67 -3 0 -41 -260 -83 -577z"/>
</g>
</svg>
